<?xml version="1.0" standalone="no"?>
<!DOCTYPE svg PUBLIC "-//W3C//DTD SVG 20010904//EN"
 "http://www.w3.org/TR/2001/REC-SVG-20010904/DTD/svg10.dtd">
<svg version="1.0" xmlns="http://www.w3.org/2000/svg"
 width="1024.000000pt" height="1536.000000pt" viewBox="0 0 1024.000000 1536.000000"
 preserveAspectRatio="xMidYMid meet">
<metadata>
Created by potrace 1.16, written by Peter Selinger 2001-2019
</metadata>
<g transform="translate(0.000000,1536.000000) scale(0.100000,-0.100000)"
fill="#000000" stroke="none">
<path d="M8180 12454 c-809 -59 -1557 -367 -2255 -928 -334 -269 -694 -624
-1020 -1006 l-106 -125 -262 0 c-293 -1 -357 -9 -541 -69 -193 -64 -391 -175
-561 -317 -118 -99 -725 -719 -749 -766 -27 -53 -18 -119 23 -155 41 -37 81
-45 251 -52 311 -14 619 -62 748 -117 35 -15 43 -23 37 -37 -36 -88 -30 -126
27 -188 l41 -44 -117 -144 c-122 -151 -136 -176 -136 -232 0 -51 19 -80 109
-168 45 -43 81 -79 81 -80 0 0 -48 1 -107 2 -288 10 -562 -75 -784 -243 -223
-167 -434 -459 -525 -727 -42 -126 -25 -206 52 -243 43 -20 96 -15 191 20 35
12 63 21 63 18 0 -2 -23 -32 -52 -66 -129 -155 -301 -458 -361 -637 -74 -221
-132 -578 -108 -668 13 -45 65 -98 109 -109 94 -23 506 80 792 199 152 63 429
219 496 279 11 11 22 19 25 19 3 0 -10 -44 -28 -98 -52 -154 -42 -226 37 -271
47 -26 84 -26 163 0 292 98 583 333 782 630 156 232 235 501 235 803 l0 114
39 -5 c82 -11 103 0 244 131 l132 123 52 -47 c68 -62 105 -70 178 -36 30 14
55 24 56 23 0 -1 16 -105 35 -231 52 -353 114 -697 132 -735 35 -73 124 -101
198 -63 41 21 589 569 727 727 297 340 421 699 403 1175 -3 96 -8 195 -11 220
-5 45 -5 45 51 90 98 77 435 418 569 575 631 740 1024 1553 1189 2455 71 388
95 794 52 893 -17 41 -51 72 -99 92 -30 12 -84 17 -240 19 -111 2 -227 2 -257
0z m328 -361 l-2 -78 -3 73 c-3 61 -7 72 -22 72 -40 0 -421 -185 -576 -280
-189 -116 -246 -153 -243 -160 2 -5 152 -159 335 -343 327 -331 332 -335 343
-309 10 26 10 26 5 2 -2 -14 -5 -31 -5 -39 0 -8 -130 118 -289 280 -158 162
-381 381 -495 488 l-207 195 45 17 c126 47 453 116 661 138 150 16 169 17 318
19 l137 2 -2 -77z m-1328 -330 c243 -227 633 -609 842 -825 l211 -219 -37 -94
c-21 -52 -41 -93 -46 -90 -4 2 -25 -21 -45 -53 -350 -527 -773 -1039 -1172
-1418 -483 -459 -1035 -908 -1567 -1278 l-170 -117 -575 573 c-316 315 -577
574 -579 575 -9 4 360 571 534 820 159 227 243 338 397 522 436 522 746 834
1142 1150 135 108 364 266 530 367 88 52 384 204 400 204 6 0 66 -52 135 -117z
m-2646 -1693 c-50 -70 -61 -68 -12 2 10 14 18 28 18 31 0 7 -150 -3 -263 -19
-60 -8 -141 -27 -180 -41 -267 -96 -453 -226 -741 -517 -82 -83 -144 -142
-139 -131 19 35 344 348 434 418 159 123 361 226 526 267 76 19 220 36 335 39
l58 1 -36 -50z m-307 -1976 c-34 -46 -64 -84 -67 -84 -3 0 -68 62 -144 139
l-138 139 67 82 68 82 137 -137 138 -137 -61 -84z m-58 -487 c195 -191 185
-171 155 -327 -28 -149 -110 -338 -199 -458 -87 -119 -224 -250 -246 -236 -5
3 -9 38 -9 78 0 47 -5 79 -14 92 -16 21 -2 27 -255 -106 -124 -65 -239 -107
-266 -96 -15 6 -17 15 -11 72 19 182 103 413 232 636 58 102 55 118 -25 118
-31 0 -83 -7 -114 -15 -97 -25 -104 -18 -66 57 60 118 257 264 434 322 55 17
156 35 192 32 13 0 87 -65 192 -169z"/>
<path d="M8214 12149 c-155 -11 -382 -44 -522 -75 -140 -31 -294 -73 -304 -83
-4 -3 53 -64 127 -134 78 -74 136 -123 140 -116 4 5 17 15 28 20 12 5 49 27
82 49 33 22 67 43 75 47 8 3 32 17 52 30 99 61 353 193 459 237 l84 35 -55 -1
c-30 0 -105 -4 -166 -9z"/>
<path d="M7292 11470 c-82 -55 -294 -213 -404 -301 -20 -15 -19 -16 28 -28
125 -32 261 -109 365 -208 31 -29 58 -51 61 -48 2 3 5 -1 5 -8 0 -7 16 -35 36
-63 159 -221 190 -516 83 -780 -84 -207 -253 -376 -459 -460 -104 -42 -206
-57 -341 -51 -134 5 -213 25 -330 83 -37 19 -73 31 -79 27 -5 -3 -7 -2 -4 3 3
5 -22 32 -56 58 -153 121 -275 319 -303 492 l-6 41 -122 -126 c-399 -410 -692
-782 -1207 -1531 l-99 -144 77 -77 c42 -43 82 -75 88 -72 5 4 7 3 3 -2 -4 -4
123 -138 282 -298 l288 -291 54 36 c884 602 1728 1341 2259 1978 57 69 118
143 134 165 16 22 32 42 35 45 13 13 106 138 186 250 121 170 117 164 184 263
77 115 96 138 105 129 3 -4 6 -2 4 3 -1 6 1 19 6 30 55 137 54 133 36 149 -10
9 -21 13 -26 9 -4 -5 -5 -3 -2 3 8 14 -126 147 -138 137 -4 -4 -5 -3 -2 3 10
17 -137 169 -153 159 -10 -6 -12 -4 -7 8 4 11 -52 72 -200 216 -113 110 -210
198 -216 194 -6 -3 -7 -2 -4 4 3 5 -8 24 -26 41 l-32 31 -103 -69z"/>
<path d="M6550 11136 c-167 -36 -339 -132 -445 -249 -154 -169 -228 -395 -205
-624 29 -282 191 -518 441 -644 370 -186 810 -66 1042 284 89 134 131 282 130
457 -1 172 -47 313 -148 455 -100 140 -254 250 -430 305 -90 28 -289 36 -385
16z m263 -291 c37 -8 98 -30 136 -50 377 -198 363 -729 -24 -920 -325 -161
-707 67 -741 442 -25 275 221 538 506 542 30 0 85 -6 123 -14z"/>
<path d="M6542 10636 c-170 -228 -233 -308 -294 -371 l-38 -41 24 -62 c77
-195 260 -322 466 -322 137 0 246 41 343 130 71 65 113 131 143 225 96 301
-107 607 -428 644 l-59 7 -157 -210z"/>
</g>
</svg>
